<svg xmlns="http://www.w3.org/2000/svg" width="328" height="80" viewBox="0 0 328 80" fill="none"><g clip-path="url(#clip0_2_6)"><mask id="mask0_2_6" style="mask-type:luminance" maskUnits="userSpaceOnUse" x="0" y="0" width="328" height="80"><path d="M328 0H0V80H328V0Z" fill="white"></path></mask><g mask="url(#mask0_2_6)"><mask id="mask1_2_6" style="mask-type:luminance" maskUnits="userSpaceOnUse" x="3" y="4" width="77" height="77"><path d="M3.18584 4.52567H79.352V80.0001H3.18584V4.52567Z" fill="white"></path></mask><g mask="url(#mask1_2_6)"><path d="M41.6743 79.917C36.5944 79.917 31.6715 78.9343 27.0364 76.9947C22.5582 75.1223 18.5352 72.443 15.0824 69.0293C11.6295 65.6156 8.91953 61.6382 7.0257 57.2106C5.06387 52.6279 4.06987 47.7607 4.06987 42.7384C4.06987 37.7213 5.06387 32.8542 7.0257 28.2714C8.91953 23.844 11.6295 19.8664 15.0824 16.4527C18.5352 13.039 22.5582 10.3597 27.0364 8.48738C31.6715 6.54776 36.5944 5.56502 41.6743 5.56502C46.749 5.56502 51.6718 6.54776 56.3069 8.48738C60.7852 10.3597 64.8083 13.039 68.2611 16.4527C71.7139 19.8664 74.4239 23.844 76.3177 28.2714C78.2796 32.8542 79.2735 37.7213 79.2735 42.7384C79.2735 49.0693 77.636 55.3176 74.5389 60.8157C74.4605 60.9501 74.293 60.9967 74.157 60.9243C74.0211 60.8467 73.974 60.676 74.0472 60.5416C77.0972 55.1313 78.7138 48.9763 78.7138 42.7384C78.7138 22.5457 62.0931 6.11845 41.6743 6.11845C21.2503 6.11845 4.63488 22.5457 4.63488 42.7384C4.63488 62.9312 21.2503 79.3584 41.6743 79.3584C46.2415 79.3584 50.6987 78.5464 54.9206 76.9482C55.0672 76.8913 55.2293 76.9637 55.2868 77.1084C55.3391 77.2533 55.2712 77.4137 55.1247 77.4654C50.8348 79.0947 46.3094 79.917 41.6743 79.917Z" fill="#825831"></path></g><mask id="mask2_2_6" style="mask-type:luminance" maskUnits="userSpaceOnUse" x="16" y="0" width="17" height="17"><path d="M16.579 0H32.6503V16.4429H16.579V0Z" fill="white"></path></mask><g mask="url(#mask2_2_6)"><path d="M17.1596 15.1957C17.1281 15.1957 17.1019 15.1906 17.0706 15.1803C16.9346 15.1337 16.8562 14.9993 16.8875 14.8647C17.3165 12.7751 17.714 11.5493 18.8128 10.2562C19.4719 9.48555 20.2932 8.84418 21.0153 8.30626C22.8357 6.94076 24.7558 5.66837 26.7281 4.52012L27.0106 4.3546C27.879 3.85806 28.7735 3.34083 29.4904 2.65292C30.1861 1.98569 30.7197 1.15295 31.0336 0.24779C31.0807 0.108138 31.2272 0.0305546 31.3685 0.0667597C31.5097 0.0977943 31.6039 0.237446 31.5777 0.377099C31.3162 2.02189 30.657 3.60462 29.6629 4.9546C28.172 6.9718 25.9957 8.4097 23.8612 9.65623C23.6833 9.75967 23.5055 9.86312 23.3276 9.96658C21.4651 11.0476 19.5398 12.1648 18.2686 13.8561C18.1901 13.9648 18.1065 14.0734 18.0175 14.182C17.7873 14.4717 17.5519 14.7664 17.4106 15.0406C17.3636 15.1389 17.2642 15.1957 17.1596 15.1957ZM19.247 10.6183C18.4674 11.5286 18.0751 12.382 17.7455 13.6234C17.7717 13.5924 17.7978 13.5613 17.8188 13.5251C19.1579 11.7407 21.1355 10.5976 23.0451 9.48555C23.223 9.3821 23.4009 9.28383 23.5734 9.18037C25.6555 7.95972 27.7796 6.56319 29.2077 4.62357C29.6944 3.96669 30.0973 3.24256 30.4059 2.4874C30.2436 2.68395 30.0658 2.87533 29.8827 3.05119C29.1137 3.78566 28.1928 4.3184 27.2983 4.83563L27.0158 5.00115C25.0644 6.13389 23.1549 7.39593 21.3553 8.75107C20.628 9.29417 19.8694 9.88382 19.247 10.6183Z" fill="#825831"></path></g><path d="M14.7256 17.1429C14.6476 17.1429 14.5645 17.1056 14.5125 17.0364C14.4241 16.9247 14.4293 16.7653 14.5229 16.6589C15.999 15.0631 16.9814 14.2122 18.598 13.6749C19.5648 13.3558 20.5941 13.2388 21.488 13.1537C23.7491 12.9356 26.0465 12.8558 28.3181 12.9143L28.6455 12.925C29.6383 12.9516 30.6726 12.9782 31.6394 12.7654C32.5856 12.558 33.4744 12.1165 34.2228 11.4942C34.3321 11.3985 34.4984 11.4091 34.5971 11.5155C34.7011 11.6219 34.7063 11.7921 34.6075 11.9038C33.516 13.1962 32.1177 14.2228 30.5635 14.8664C28.2349 15.8344 25.6359 15.9141 23.1721 15.861C22.9694 15.8557 22.7667 15.8504 22.5587 15.845C20.4172 15.7919 18.1978 15.7333 16.2278 16.5311C16.1031 16.579 15.973 16.6269 15.8379 16.6749C15.4949 16.8024 15.1363 16.9354 14.8763 17.1003C14.8295 17.1269 14.7776 17.1429 14.7256 17.1429ZM18.7695 14.2175C17.6312 14.6004 16.8411 15.1323 15.9107 16.0419C15.9472 16.0259 15.9834 16.01 16.0198 15.9993C18.099 15.1589 20.3757 15.2174 22.5743 15.2759C22.7771 15.2813 22.985 15.2866 23.1877 15.2919C25.5892 15.3451 28.1206 15.2653 30.3556 14.3399C31.1197 14.0207 31.837 13.6111 32.5023 13.1165C32.258 13.2016 32.0086 13.2707 31.7591 13.3239C30.7246 13.5526 29.6591 13.526 28.6299 13.4941L28.3077 13.4888C26.0569 13.4303 23.7803 13.5101 21.5401 13.7228C20.6407 13.8079 19.6791 13.9143 18.7695 14.2175Z" fill="#825831"></path><mask id="mask3_2_6" style="mask-type:luminance" maskUnits="userSpaceOnUse" x="0" y="23" width="6" height="19"><path d="M0 23.0629H5.86458V41.6004H0V23.0629Z" fill="white"></path></mask><g mask="url(#mask3_2_6)"><path d="M4.43603 40.9594C4.35233 40.9594 4.26862 40.9181 4.2163 40.8509C3.48911 39.9199 2.97119 39.1284 2.56837 38.3579C1.41219 36.1181 1.05121 33.5527 0.852412 31.339C0.805329 30.7856 0.763476 30.2217 0.721624 29.6787C0.585603 27.889 0.449582 26.0321 0.0310576 24.2684C-0.000331042 24.1443 0.0572148 24.015 0.17231 23.9581C0.292636 23.896 0.428656 23.927 0.517592 24.0201C2.40096 26.1719 3.63037 28.2614 4.27385 30.408C5.01151 32.8596 4.95919 35.4406 4.83362 37.4113C4.76562 38.425 4.73422 39.3767 4.73422 40.313C4.73422 40.4474 4.72899 40.5767 4.71853 40.706C4.70807 40.8199 4.6296 40.9181 4.51974 40.9491C4.48834 40.9543 4.46219 40.9594 4.43603 40.9594ZM3.0706 38.1043C3.35833 38.663 3.7193 39.2319 4.17446 39.863C4.18492 39.0613 4.2163 38.2389 4.26862 37.375C4.39417 35.451 4.44649 32.932 3.73499 30.5631C3.19615 28.7787 2.23355 27.0253 0.800097 25.2356C1.06167 26.6994 1.17154 28.189 1.2814 29.6373C1.32325 30.1804 1.3651 30.739 1.41219 31.2873C1.60575 33.4493 1.95627 35.9476 3.0706 38.1043Z" fill="#825831"></path></g><path d="M4.62649 38.5714C4.59958 38.5714 4.57266 38.5714 4.54572 38.5614C4.4111 38.5264 4.32494 38.4117 4.33572 38.2869C4.36802 37.8974 4.43803 37.483 4.54035 37.0136C4.7719 35.9901 5.04654 35.1713 5.40732 34.4373C6.34432 32.52 7.98136 31.0021 9.56454 29.5343C11.207 28.0114 12.9032 26.4386 13.7487 24.4564C13.7972 24.3466 13.9156 24.2767 14.0449 24.2867C14.1687 24.2967 14.2764 24.3816 14.3033 24.4964C14.8096 26.6633 13.9856 29.2047 12.047 31.4664C10.9646 32.7297 9.65609 33.8231 8.39062 34.8817C7.73365 35.4359 7.05514 36 6.4197 36.5843C5.73581 37.2084 5.21886 37.7576 4.89576 38.4067C4.89037 38.4167 4.88498 38.4266 4.8796 38.4316C4.83113 38.5214 4.72881 38.5714 4.62649 38.5714ZM13.8618 25.5099C12.9086 27.1926 11.4224 28.5756 9.9738 29.9137C8.4283 31.3467 6.82896 32.8296 5.93506 34.657C5.5958 35.351 5.33194 36.1249 5.11115 37.1036C5.39117 36.784 5.7035 36.4844 6.01045 36.1999C6.65664 35.6106 7.34054 35.0364 8.0029 34.4871C9.24683 33.4387 10.5392 32.3603 11.5947 31.132C13.1563 29.3046 13.9533 27.3074 13.8618 25.5099Z" fill="#825831"></path><path d="M5.96928 32.8571C5.96488 32.8571 5.95826 32.8571 5.95385 32.8523C5.8987 32.8377 5.8568 32.7401 5.85239 32.6184C5.60314 26.9324 5.99797 21.1393 6.99494 15.8724C7.0192 15.7554 7.07655 15.6921 7.1339 15.7214C7.18904 15.7506 7.22875 15.8676 7.22434 15.9943C7.18023 17.2269 7.19125 18.4937 7.20449 19.7166C7.21551 20.9834 7.22654 22.294 7.18023 23.5851C7.06774 26.5621 6.65967 29.3783 6.07958 32.6914C6.06193 32.7939 6.01782 32.8571 5.96928 32.8571ZM6.95745 17.529C6.22515 21.953 5.91415 26.7034 6.04649 31.4101C6.5185 28.6037 6.84715 26.1237 6.942 23.5414C6.99053 22.2794 6.9773 20.9834 6.96627 19.7313C6.95966 19.0053 6.95304 18.2696 6.95745 17.529Z" fill="#825831"></path><path d="M7.50655 25.7143C7.4441 25.7143 7.38164 25.6951 7.32959 25.6569C7.22548 25.5801 7.19426 25.4461 7.25672 25.3359C7.62106 24.7133 8.16236 24.0907 8.97431 23.377C12.4147 20.3357 16.6878 18.1804 21.3254 17.1507C21.4503 17.1219 21.5752 17.1746 21.6377 17.2751C21.7002 17.371 21.6794 17.5003 21.5961 17.5817C19.7952 19.2916 17.9318 21.0589 15.5845 22.218C14.6164 22.6969 13.5025 23.0896 12.4251 23.4633C10.7231 24.0523 8.96911 24.6654 7.68351 25.6569C7.63147 25.6951 7.56902 25.7143 7.50655 25.7143ZM9.35948 23.7459C9.09403 23.9804 8.85982 24.2056 8.65162 24.4211C9.75504 23.8416 11.0042 23.4057 12.2273 22.9794C13.336 22.5916 14.3874 22.2276 15.319 21.7677C17.2917 20.7907 18.9364 19.349 20.4926 17.8834C16.3236 18.9659 12.4928 20.9823 9.35948 23.7459Z" fill="#825831"></path><path d="M9.23639 22.8571C9.2118 22.8571 9.19336 22.8523 9.16877 22.8474C9.05197 22.8281 8.95976 22.7653 8.92287 22.6734C8.72001 22.1806 8.63395 21.62 8.68312 21.0544C8.76304 20.0783 9.18106 19.1649 9.62367 18.3191C10.1278 17.3526 10.6995 16.3956 11.2589 15.4726C11.8798 14.4431 12.5191 13.3799 13.0539 12.3118C14.0498 10.3255 14.4248 6.00013 14.4248 5.95663C14.4371 5.82614 14.5723 5.71981 14.7383 5.71499C14.9042 5.70531 15.0517 5.79714 15.0825 5.9228C15.1378 6.16927 16.4903 11.901 15.5804 14.7186C14.4801 18.1451 10.9454 21.4894 9.48229 22.7701C9.42081 22.8233 9.3286 22.8571 9.23639 22.8571ZM9.34089 21.0883C9.31015 21.417 9.33475 21.7456 9.40237 22.0549C11.0007 20.605 13.9637 17.6183 14.9412 14.593C15.4882 12.9063 15.1624 10.0259 14.8366 8.07341C14.6154 9.50394 14.2465 11.3501 13.6686 12.5003C13.1277 13.5877 12.4822 14.6606 11.8552 15.6949C11.3019 16.6131 10.7302 17.5651 10.2323 18.5173C9.81423 19.3194 9.41467 20.1894 9.34089 21.0883Z" fill="#825831"></path><path d="M58.8342 75.8369C58.8342 76.0697 58.7504 76.2663 58.5831 76.4266C58.4208 76.5922 58.222 76.6749 57.9866 76.6749C57.7565 76.6749 57.5576 76.5922 57.3903 76.4266C57.2281 76.2663 57.1444 76.0697 57.1444 75.8369C57.1444 75.6093 57.2281 75.4129 57.3903 75.2473C57.5576 75.087 57.7565 75.0042 57.9866 75.0042C58.222 75.0042 58.4208 75.087 58.5831 75.2473C58.7504 75.4129 58.8342 75.6093 58.8342 75.8369Z" fill="#825831"></path><path d="M64.3949 72.5313C64.3949 72.764 64.3165 72.9606 64.149 73.1209C63.9869 73.2864 63.7881 73.3691 63.5527 73.3691C63.3225 73.3691 63.1237 73.2864 62.9562 73.1209C62.7941 72.9606 62.7103 72.764 62.7103 72.5313C62.7103 72.3037 62.7941 72.1072 62.9562 71.9416C63.1237 71.7813 63.3225 71.6986 63.5527 71.6986C63.7881 71.6986 63.9869 71.7813 64.149 71.9416C64.3165 72.1072 64.3949 72.3037 64.3949 72.5313Z" fill="#825831"></path><path d="M69.2973 68.3267C69.2973 68.5543 69.2136 68.7509 69.0514 68.9164C68.884 69.0767 68.6852 69.1594 68.455 69.1594C68.2197 69.1594 68.0208 69.0767 67.8586 68.9164C67.6913 68.7509 67.6128 68.5543 67.6128 68.3267C67.6128 68.094 67.6913 67.8974 67.8586 67.7371C68.0208 67.5716 68.2197 67.4889 68.455 67.4889C68.6852 67.4889 68.884 67.5716 69.0514 67.7371C69.2136 67.8974 69.2973 68.094 69.2973 68.3267Z" fill="#825831"></path><path d="M73.383 63.3356C73.383 63.5683 73.3045 63.7649 73.1372 63.9303C72.9749 64.0907 72.7763 64.1734 72.5407 64.1734C72.3054 64.1734 72.1065 64.0907 71.9444 63.9303C71.7769 63.7649 71.6985 63.5683 71.6985 63.3356C71.6985 63.108 71.7769 62.9114 71.9444 62.7459C72.1065 62.5856 72.3054 62.5029 72.5407 62.5029C72.7763 62.5029 72.9749 62.5856 73.1372 62.7459C73.3045 62.9114 73.383 63.108 73.383 63.3356Z" fill="#825831"></path><mask id="mask4_2_6" style="mask-type:luminance" maskUnits="userSpaceOnUse" x="48" y="15" width="3" height="3"><path d="M48.7214 15.6257H50.0606V17.767H48.7214V15.6257Z" fill="white"></path></mask><g mask="url(#mask4_2_6)"><path d="M49.5164 17.5034H49.4537C49.3124 17.519 49.1659 17.4051 49.1503 17.2656L48.988 15.9777C48.9724 15.8329 49.0874 15.6931 49.2287 15.6777H49.2915C49.438 15.657 49.5845 15.7707 49.6002 15.9156L49.7624 17.1983C49.7781 17.3431 49.663 17.488 49.5164 17.5034Z" fill="#BD6513"></path></g><path d="M47.5107 18.5199L47.4539 18.5459C47.2963 18.602 47.0881 18.5631 47.006 18.455L46.274 17.4987C46.1921 17.3906 46.2551 17.2479 46.4065 17.1916L46.4633 17.1656C46.6211 17.1137 46.8357 17.1527 46.9114 17.2609L47.6496 18.217C47.7253 18.3209 47.6685 18.455 47.5107 18.5199Z" fill="#BD6513"></path><mask id="mask5_2_6" style="mask-type:luminance" maskUnits="userSpaceOnUse" x="43" y="19" width="4" height="3"><path d="M43.6415 19.0919H46.0428V21.74H43.6415V19.0919Z" fill="white"></path></mask><g mask="url(#mask5_2_6)"><path d="M45.3098 20.3747L45.2783 20.4419C45.1947 20.566 45.022 20.5971 44.8912 20.5196L43.7978 19.8057C43.6723 19.7281 43.6409 19.5523 43.7194 19.423L43.7507 19.3764C43.8292 19.2471 44.0071 19.2161 44.1378 19.2989L45.2314 20.0126C45.3568 20.0901 45.4039 20.266 45.3098 20.3747Z" fill="#BD6513"></path></g><mask id="mask6_2_6" style="mask-type:luminance" maskUnits="userSpaceOnUse" x="51" y="15" width="2" height="3"><path d="M51.4003 15.6257H52.7395V17.767H51.4003V15.6257Z" fill="white"></path></mask><g mask="url(#mask6_2_6)"><path d="M52.091 17.5031L52.1537 17.5186C52.3002 17.5341 52.4416 17.4359 52.4729 17.2961L52.6664 16.0239C52.6821 15.879 52.5879 15.7393 52.4416 15.7083L52.3631 15.6773C52.2166 15.6566 52.0753 15.7549 52.0439 15.8997L51.8503 17.1669C51.8347 17.3273 51.9288 17.4669 52.091 17.5031Z" fill="#BD6513"></path></g><path d="M55.0881 18.5199L55.1443 18.5459C55.3007 18.602 55.5132 18.5631 55.5882 18.455L56.3195 17.4987C56.3945 17.3906 56.3383 17.2479 56.1819 17.1916L56.1257 17.1656C55.9695 17.1137 55.7632 17.1527 55.682 17.2609L54.9568 18.217C54.8568 18.3209 54.913 18.455 55.0881 18.5199Z" fill="#BD6513"></path><mask id="mask7_2_6" style="mask-type:luminance" maskUnits="userSpaceOnUse" x="55" y="19" width="3" height="3"><path d="M55.418 19.0919H57.7042V21.74H55.418V19.0919Z" fill="white"></path></mask><g mask="url(#mask7_2_6)"><path d="M56.2969 20.3749L56.3283 20.4266C56.412 20.5507 56.5898 20.5817 56.7154 20.5041L57.8088 19.7904C57.9343 19.7076 57.971 19.537 57.8872 19.4076L57.8559 19.3611C57.7774 19.2317 57.5995 19.2007 57.4688 19.2834L56.3806 20.0129C56.2498 20.0904 56.2185 20.2663 56.2969 20.3749Z" fill="#BD6513"></path></g><mask id="mask8_2_6" style="mask-type:luminance" maskUnits="userSpaceOnUse" x="44" y="19" width="13" height="11"><path d="M44.7037 19.0919H56.7572V29.5296H44.7037V19.0919Z" fill="white"></path></mask><g mask="url(#mask8_2_6)"><path d="M56.4592 22.7593L54.3405 19.6146C54.2882 19.537 54.194 19.4851 54.1155 19.4851H47.7382C47.6545 19.4851 47.5603 19.537 47.5133 19.599L45.5201 22.5679C45.4573 22.599 45.405 22.6661 45.405 22.7283L45.3893 22.7593C45.3264 22.8524 45.3264 22.9817 45.405 23.0749L50.7254 29.0333C50.7725 29.0954 50.851 29.1264 50.919 29.1264C50.9818 29.1264 51.0602 29.0954 51.1073 29.0333L56.4279 23.0749C56.5221 22.9973 56.5221 22.8731 56.4592 22.7593ZM54.1311 20.2507L55.6902 22.5679H53.3098L54.1311 20.2507ZM53.8382 20.0129L53.0064 22.3766L51.3009 20.0129H53.8382ZM52.6978 22.5524H49.088L50.8823 20.0439L52.6978 22.5524ZM50.4848 20.0129L48.8264 22.33L48.026 20.0129H50.4848ZM47.7226 20.2507L48.5229 22.5679H46.1635L47.7226 20.2507ZM45.9543 22.9041H48.6538L50.3854 27.8747L45.9543 22.9041ZM50.919 28.335L49.02 22.9041H52.8128L50.919 28.335ZM51.4631 27.8747L53.2 22.9041H55.8994L51.4631 27.8747Z" fill="#BD6513"></path></g><path d="M25.081 32.1499C27.5033 32.1499 27.6706 34.1309 27.6706 39.6187V51.9909C27.6706 57.4839 27.5033 59.4597 25.081 59.4597V59.739H45.2591V55.1407H44.9766C44.9766 59.1544 36.3813 59.4597 33.7027 59.4597H30.0981V44.5789C30.5481 43.9944 31.249 43.5754 32.0705 43.6066C34.0688 43.6583 35.5075 46.0581 38.9447 46.0581C41.1733 46.0581 42.5545 44.6359 42.5545 42.991H42.272C42.272 43.9686 41.2571 44.5789 40.1845 44.5789C37.7048 44.5789 36.1563 42.8513 33.3679 42.8513C32.0705 42.8513 30.9404 43.3271 30.0981 44.1341V32.1499H34.7751C41.2571 32.1499 44.9766 33.655 44.9766 35.5221V35.636H45.2591V31.8757H25.081V32.1499Z" fill="#BD6513"></path><path d="M44.6928 65.4803C45.0276 65.5371 45.2264 65.5889 45.6762 65.5889C49.3123 65.5889 51.8757 61.8027 51.8757 57.8149V39.6187C51.8757 34.1309 52.0484 32.1499 54.4705 32.1499V31.8757H46.8586V32.1499C49.2861 32.1499 49.4534 34.1309 49.4534 39.6187V57.8717C49.4534 62.1079 47.9626 65.2267 45.2003 65.2267C45.0276 65.2267 44.7451 65.2009 44.7451 65.2009L44.6928 65.4803Z" fill="#BD6513"></path><path d="M312.525 14.4359V13.7662H317.253V14.4359H315.27V20H314.507V14.4359H312.525ZM318.432 13.7662H319.343L321.486 18.9407H321.56L323.703 13.7662H324.613V20H323.899V15.2639H323.837L321.868 20H321.178L319.208 15.2639H319.145V20H318.432V13.7662Z" fill="#BD6513"></path><path d="M86.696 19.1223C88.284 19.1223 88.3969 20.4094 88.3969 23.9957V32.0836C88.3969 35.6699 88.284 36.9646 86.696 36.9646V37.1431H99.8811V34.1371H99.7004C99.7004 36.7636 94.0863 36.9646 92.3327 36.9646H89.9772V27.2399C90.2708 26.8603 90.7299 26.585 91.2642 26.6C92.5736 26.6371 93.5144 28.2071 95.7569 28.2071C97.217 28.2071 98.1125 27.277 98.1125 26.1981H97.9319C97.9319 26.838 97.2696 27.2399 96.5697 27.2399C94.9517 27.2399 93.9357 26.1089 92.1145 26.1089C91.2642 26.1089 90.5266 26.4214 89.9772 26.9496V19.1223H93.0327C97.2696 19.1223 99.7004 20.1044 99.7004 21.3246V21.3916H99.8811V18.9363H86.696V19.1223Z" fill="#523A24"></path><path d="M103.526 18.9363V19.1223C105.114 19.1223 105.227 20.4094 105.227 23.9957V32.0836C105.227 35.6699 105.114 36.9646 103.526 36.9646V37.1431H116.696V34.1371H116.508C116.508 36.7636 110.894 36.9646 109.148 36.9646H106.808V23.9957C106.808 20.4094 106.921 19.1223 108.501 19.1223V18.9363H103.526Z" fill="#523A24"></path><path d="M119.789 19.1223C121.189 19.1223 121.633 20.4839 123.304 23.6536C124.448 25.7666 125.9 28.2443 126.532 29.4421V32.0836C126.532 35.6699 126.42 36.9646 124.832 36.9646V37.1431H129.806V36.9646C128.226 36.9646 128.113 35.6699 128.113 32.0836V29.4421C128.738 28.2443 130.19 25.7666 131.334 23.6536C133.012 20.4839 133.456 19.1223 134.856 19.1223V18.9363H130.912V19.1223H131.387C131.906 19.1223 132.425 19.3009 132.425 19.9556C132.425 21.161 129.324 26.6743 128.06 29.0627C126.916 26.8603 123.507 21.3246 123.507 20.0821C123.507 19.3529 123.989 19.1223 124.501 19.1223H124.907V18.9363H119.789V19.1223Z" fill="#523A24"></path><path d="M138.5 23.3036C138.5 29.2783 150.36 27.7307 150.36 33.2069C150.36 35.2307 148.237 37.18 145.551 37.18C141.171 37.18 138.755 32.8497 138.755 32.8497H138.575V35.2827C139.937 36.2871 142.089 37.5074 144.519 37.5074C148.772 37.5074 151.422 34.9926 151.422 32.4629C151.422 26.0937 139.786 27.8571 139.786 22.872C139.786 20.8481 141.668 18.7947 145.092 18.7947C149.028 18.7947 150.158 21.8527 150.158 21.8527H150.338V19.4121C148.922 18.936 147.357 18.5714 145.092 18.5714C140.84 18.5714 138.5 20.7739 138.5 23.3036Z" fill="#523A24"></path><path d="M155.621 19.1223C157.209 19.1223 157.321 20.4094 157.321 23.9957V32.0836C157.321 35.6699 157.209 36.9646 155.621 36.9646V37.1431H160.594V36.9646C159.015 36.9646 158.902 35.6699 158.902 32.0836V23.9957C158.902 20.4094 159.015 19.1223 160.594 19.1223V18.9363H155.621V19.1223Z" fill="#523A24"></path><path d="M164.238 33.9583C164.238 35.8481 165.458 37.5074 167.595 37.5074C171.259 37.5074 173.412 34.3006 173.412 29.881C173.412 29.003 173.375 28.2739 173.3 27.6934L175.587 33.6459C176.286 35.4836 176.377 36.9643 173.781 36.9643V37.1429H179.816V36.9643C178.695 36.9643 178.108 35.9599 177.295 33.9583L171.402 18.5714H171.222C170.063 21.5923 169.378 23.4003 168.257 26.3319C168.069 26.8006 168.167 27.2917 168.679 27.2917C169.732 27.2917 170.281 25.3794 171.161 25.3794C171.402 25.3794 171.606 25.5283 171.606 25.8706C171.606 27.7679 164.238 29.4791 164.238 33.9583ZM165.803 33.6086C165.803 29.1146 171.808 28.3481 171.808 25.9077C171.808 25.439 171.553 25.2009 171.2 25.2009C170.229 25.2009 169.544 27.1131 168.7 27.1131C168.4 27.1131 168.257 26.8899 168.498 26.2574L170.612 20.6846L172.84 26.4956C173.171 27.567 173.224 28.5714 173.224 29.9181C173.224 32.9019 171.771 36.6294 168.7 36.6294C166.894 36.6294 165.803 35.32 165.803 33.6086Z" fill="#523A24"></path><path d="M182.91 18.9363V19.1223C184.498 19.1223 184.611 20.4094 184.611 23.9957V32.0836C184.611 35.6699 184.498 36.9646 182.91 36.9646V37.1431H187.885V36.9646C186.304 36.9646 184.791 34.8291 184.791 29.5314V19.9556L196.449 37.5077H196.63V23.9957C196.63 20.4094 196.742 19.1223 198.323 19.1223V18.9363H193.355V19.1223C194.936 19.1223 196.449 21.2503 196.449 26.5479V34.4869L186.139 18.9363H182.91Z" fill="#523A24"></path><path d="M209.487 40.8931C209.706 40.9303 209.833 40.9674 210.127 40.9674C212.505 40.9674 214.183 38.4899 214.183 35.8857V23.9957C214.183 20.4094 214.288 19.1223 215.876 19.1223V18.9363H210.903V19.1223C212.482 19.1223 212.596 20.4094 212.596 23.9957V35.9229C212.596 38.6907 211.616 40.7294 209.819 40.7294C209.706 40.7294 209.526 40.7146 209.526 40.7146L209.487 40.8931Z" fill="#523A24"></path><path d="M219.334 19.1223C220.922 19.1223 221.034 20.4094 221.034 23.9957V32.0836C221.034 35.6699 220.922 36.9646 219.334 36.9646V37.1431H232.519V34.1371H232.338C232.338 36.7636 226.723 36.9646 224.97 36.9646H222.615V27.2399C222.909 26.8603 223.367 26.585 223.901 26.6C225.21 26.6371 226.151 28.2071 228.395 28.2071C229.854 28.2071 230.75 27.277 230.75 26.1981H230.57C230.57 26.838 229.906 27.2399 229.207 27.2399C227.589 27.2399 226.573 26.1089 224.752 26.1089C223.901 26.1089 223.164 26.4214 222.615 26.9496V19.1223H225.67C229.906 19.1223 232.338 20.1044 232.338 21.3246V21.3916H232.519V18.9363H219.334V19.1223Z" fill="#523A24"></path><path d="M235.614 19.1223C236.737 19.1223 237.33 20.1193 238.135 22.1207L244.028 37.5077H244.217L247.949 27.7457L251.69 37.5077H251.878L257.77 22.1207C258.538 20.1044 259.162 19.1223 260.292 19.1223V18.9363H255.076V19.1223C257.672 19.1223 257.635 21.0344 257.161 22.4853C255.739 26.8009 254.008 31.1014 252.479 35.3946L248.747 25.6773L250.109 22.1207C250.877 20.1044 251.51 19.1223 252.631 19.1223V18.9363H243.276V19.1223C244.398 19.1223 244.984 20.1193 245.796 22.1207L247.806 27.3514C246.813 30.0449 245.782 32.716 244.818 35.3946L239.852 22.4333C239.151 20.5954 239.061 19.1223 241.658 19.1223V18.9363H235.614V19.1223ZM248.318 19.1371C250.455 19.1371 249.922 21.2279 249.5 22.4853C249.183 23.4006 248.89 24.3083 248.581 25.2011L247.513 22.4333C246.903 20.8707 246.549 19.1371 248.318 19.1371Z" fill="#523A24"></path><path d="M263.38 19.1223C264.968 19.1223 265.08 20.4094 265.08 23.9957V32.0836C265.08 35.6699 264.968 36.9646 263.38 36.9646V37.1431H276.565V34.1371H276.384C276.384 36.7636 270.771 36.9646 269.016 36.9646H266.661V27.2399C266.954 26.8603 267.414 26.585 267.949 26.6C269.258 26.6371 270.198 28.2071 272.441 28.2071C273.902 28.2071 274.796 27.277 274.796 26.1981H274.615C274.615 26.838 273.954 27.2399 273.254 27.2399C271.636 27.2399 270.62 26.1089 268.798 26.1089C267.949 26.1089 267.21 26.4214 266.661 26.9496V19.1223H269.717C273.954 19.1223 276.384 20.1044 276.384 21.3246V21.3916H276.565V18.9363H263.38V19.1223Z" fill="#523A24"></path><path d="M280.21 18.9363V19.1223C281.798 19.1223 281.911 20.4094 281.911 23.9957V32.0836C281.911 35.6699 281.798 36.9646 280.21 36.9646V37.1431H293.381V34.1371H293.193C293.193 36.7636 287.578 36.9646 285.833 36.9646H283.492V23.9957C283.492 20.4094 283.604 19.1223 285.185 19.1223V18.9363H280.21Z" fill="#523A24"></path><path d="M297.58 23.3036C297.58 29.2783 309.44 27.7307 309.44 33.2069C309.44 35.2307 307.317 37.18 304.631 37.18C300.252 37.18 297.836 32.8497 297.836 32.8497H297.655V35.2827C299.018 36.2871 301.169 37.5074 303.599 37.5074C307.852 37.5074 310.5 34.9926 310.5 32.4629C310.5 26.0937 298.866 27.8571 298.866 22.872C298.866 20.8481 300.747 18.7947 304.172 18.7947C308.108 18.7947 309.236 21.8527 309.236 21.8527H309.417V19.4121C308.002 18.936 306.437 18.5714 304.172 18.5714C299.921 18.5714 297.58 20.7739 297.58 23.3036Z" fill="#523A24"></path><path d="M94.5829 62.5397L92.837 68.1053H92.1446L90.7299 63.8493C90.7072 63.8121 90.6846 63.7749 90.6696 63.7303C90.6696 63.693 90.6546 63.641 90.6396 63.5814C90.6396 63.641 90.6244 63.693 90.6094 63.7303C90.5868 63.7749 90.5793 63.8121 90.5793 63.8493L89.1344 68.1053H88.442L86.696 62.5397H87.3282C87.3885 62.5397 87.4335 62.5621 87.4788 62.5993C87.5389 62.6216 87.5766 62.6589 87.5991 62.7183L88.7431 66.5874C88.7581 66.6693 88.7807 66.751 88.8032 66.8254C88.8182 66.9073 88.8409 66.9891 88.8634 67.0636C88.8785 66.9891 88.901 66.9073 88.9237 66.8254C88.9387 66.7287 88.9613 66.6469 88.9838 66.5874L90.3084 62.7183C90.3084 62.6811 90.3234 62.6439 90.3686 62.5993C90.4287 62.5621 90.489 62.5397 90.5492 62.5397H90.79C90.8502 62.5397 90.8955 62.5621 90.9405 62.5993C90.9781 62.6216 91.0083 62.6589 91.0308 62.7183L92.3554 66.5874C92.3704 66.6469 92.393 66.7213 92.4155 66.7957C92.4306 66.8776 92.4532 66.9669 92.4758 67.0636C92.4908 66.9669 92.5058 66.8776 92.5058 66.7957C92.521 66.7213 92.5435 66.6469 92.5661 66.5874L93.7401 62.7183C93.7551 62.6811 93.7853 62.6439 93.8304 62.5993C93.868 62.5621 93.9282 62.5397 94.011 62.5397H94.5829Z" fill="#BD6513"></path><path d="M104.265 62.5397V68.1053H103.512V65.5754H100.472V68.1053H99.7195V62.5397H100.472V65.01H103.512V62.5397H104.265Z" fill="#BD6513"></path><path d="M113.468 67.4803V68.1053H110.006V62.5397H113.468V63.1647H110.758V65.01H112.956V65.6053H110.758V67.4803H113.468Z" fill="#BD6513"></path><path d="M120.397 65.2481C120.616 65.2481 120.804 65.2183 120.969 65.1589C121.127 65.0993 121.27 65.0249 121.391 64.9207C121.511 64.824 121.601 64.7124 121.662 64.5933C121.722 64.4594 121.752 64.3106 121.752 64.1469C121.752 63.8121 121.639 63.5666 121.421 63.4029C121.195 63.2243 120.864 63.135 120.427 63.135H119.585V65.2481H120.397ZM122.986 68.1053H122.324C122.181 68.1053 122.068 68.0606 121.993 67.9564L120.548 65.9624C120.503 65.9029 120.458 65.8657 120.397 65.8433C120.352 65.8061 120.277 65.7839 120.157 65.7839H119.585V68.1053H118.832V62.5397H120.427C120.766 62.5397 121.067 62.5844 121.331 62.6589C121.586 62.7183 121.797 62.8224 121.963 62.9564C122.143 63.0979 122.271 63.2689 122.354 63.4624C122.429 63.641 122.474 63.8493 122.474 64.0874C122.474 64.2883 122.444 64.4743 122.384 64.6529C122.324 64.8166 122.234 64.9653 122.113 65.0993C121.993 65.2407 121.842 65.3597 121.662 65.4564C121.496 65.5383 121.308 65.6053 121.09 65.6647C121.188 65.7243 121.278 65.8061 121.361 65.9029L122.986 68.1053Z" fill="#BD6513"></path><path d="M131.505 67.4803V68.1053H128.043V62.5397H131.505V63.1647H128.796V65.01H130.993V65.6053H128.796V67.4803H131.505Z" fill="#BD6513"></path><path d="M146.363 67.4803V68.1053H143.172V62.5397H143.925V67.4803H146.363Z" fill="#BD6513"></path><path d="M153.664 67.51C153.904 67.51 154.115 67.4729 154.296 67.391C154.476 67.3166 154.627 67.205 154.748 67.0636C154.882 66.9296 154.988 66.7586 155.049 66.5576C155.109 66.3641 155.138 66.1559 155.138 65.9326V62.5397H155.891V65.9326C155.891 66.2526 155.839 66.5501 155.741 66.8254C155.635 67.1081 155.485 67.3463 155.29 67.5397C155.109 67.7407 154.875 67.8969 154.596 68.016C154.312 68.1127 154.003 68.1647 153.664 68.1647C153.318 68.1647 153.008 68.1127 152.731 68.016C152.445 67.8969 152.204 67.7407 152.008 67.5397C151.828 67.3463 151.685 67.1081 151.587 66.8254C151.481 66.5501 151.436 66.2526 151.436 65.9326V62.5397H152.189V65.9326C152.189 66.1559 152.219 66.3641 152.279 66.5576C152.339 66.7586 152.429 66.9296 152.55 67.0636C152.686 67.205 152.851 67.3166 153.032 67.391C153.212 67.4729 153.423 67.51 153.664 67.51Z" fill="#BD6513"></path><path d="M165.868 68.1053H165.085C165.04 68.1053 165.003 68.0979 164.965 68.0754C164.919 68.0383 164.89 68.001 164.874 67.9564L163.369 65.635C163.347 65.6946 163.324 65.7466 163.309 65.7839L161.834 67.9564C161.811 68.001 161.782 68.0383 161.743 68.0754C161.721 68.0979 161.684 68.1053 161.623 68.1053H160.931L162.857 65.2481L160.992 62.5397H161.743C161.804 62.5397 161.841 62.5546 161.864 62.5696C161.902 62.5919 161.932 62.6216 161.954 62.6589L163.429 64.8611C163.445 64.824 163.467 64.7644 163.49 64.6826L164.874 62.6589C164.89 62.6216 164.912 62.5919 164.935 62.5696C164.972 62.5546 165.01 62.5397 165.055 62.5397H165.777L163.91 65.2183L165.868 68.1053Z" fill="#BD6513"></path><path d="M173.118 67.51C173.359 67.51 173.57 67.4729 173.75 67.391C173.931 67.3166 174.081 67.205 174.201 67.0636C174.337 66.9296 174.443 66.7586 174.503 66.5576C174.562 66.3641 174.593 66.1559 174.593 65.9326V62.5397H175.346V65.9326C175.346 66.2526 175.292 66.5501 175.195 66.8254C175.09 67.1081 174.94 67.3463 174.743 67.5397C174.562 67.7407 174.33 67.8969 174.051 68.016C173.765 68.1127 173.457 68.1647 173.118 68.1647C172.772 68.1647 172.463 68.1127 172.184 68.016C171.898 67.8969 171.658 67.7407 171.462 67.5397C171.281 67.3463 171.138 67.1081 171.041 66.8254C170.936 66.5501 170.891 66.2526 170.891 65.9326V62.5397H171.642V65.9326C171.642 66.1559 171.673 66.3641 171.733 66.5576C171.794 66.7586 171.884 66.9296 172.003 67.0636C172.139 67.205 172.305 67.3166 172.486 67.391C172.667 67.4729 172.878 67.51 173.118 67.51Z" fill="#BD6513"></path><path d="M182.582 65.2481C182.8 65.2481 182.989 65.2183 183.154 65.1589C183.313 65.0993 183.456 65.0249 183.576 64.9207C183.696 64.824 183.787 64.7124 183.846 64.5933C183.907 64.4594 183.937 64.3106 183.937 64.1469C183.937 63.8121 183.825 63.5666 183.606 63.4029C183.381 63.2243 183.049 63.135 182.612 63.135H181.77V65.2481H182.582ZM185.171 68.1053H184.509C184.366 68.1053 184.254 68.0606 184.179 67.9564L182.734 65.9624C182.687 65.9029 182.643 65.8657 182.582 65.8433C182.537 65.8061 182.462 65.7839 182.342 65.7839H181.77V68.1053H181.017V62.5397H182.612C182.952 62.5397 183.252 62.5844 183.515 62.6589C183.771 62.7183 183.982 62.8224 184.148 62.9564C184.329 63.0979 184.456 63.2689 184.54 63.4624C184.615 63.641 184.66 63.8493 184.66 64.0874C184.66 64.2883 184.629 64.4743 184.569 64.6529C184.509 64.8166 184.418 64.9653 184.298 65.0993C184.179 65.2407 184.027 65.3597 183.846 65.4564C183.681 65.5383 183.494 65.6053 183.275 65.6647C183.372 65.7243 183.463 65.8061 183.546 65.9029L185.171 68.1053Z" fill="#BD6513"></path><path d="M192.335 65.8731V68.1053H191.582V65.8731L189.506 62.5397H190.168C190.243 62.5397 190.304 62.5621 190.348 62.5993C190.386 62.6216 190.416 62.6589 190.439 62.7183L191.734 64.891C191.772 64.9729 191.809 65.0546 191.854 65.129C191.892 65.2109 191.929 65.2927 191.974 65.3671C191.99 65.2927 192.019 65.2109 192.065 65.129C192.103 65.0546 192.14 64.9729 192.185 64.891L193.48 62.7183C193.494 62.6811 193.524 62.6439 193.569 62.5993C193.607 62.5621 193.66 62.5397 193.721 62.5397H194.413L192.335 65.8731Z" fill="#BD6513"></path><path d="M211.563 62.5397V68.1053H210.9V64.0279C210.9 63.9683 210.9 63.9089 210.9 63.8493C210.916 63.7897 210.93 63.7229 210.93 63.641L209.004 67.1231C208.943 67.2421 208.854 67.3017 208.732 67.3017H208.612C208.492 67.3017 208.401 67.2421 208.342 67.1231L206.355 63.641C206.37 63.7823 206.384 63.9089 206.384 64.0279V68.1053H205.722V62.5397H206.295C206.355 62.5397 206.4 62.5546 206.445 62.5696C206.483 62.5696 206.513 62.5993 206.536 62.6589L208.492 66.0814C208.507 66.1633 208.53 66.2303 208.552 66.2897C208.589 66.3493 208.627 66.4237 208.673 66.4981C208.687 66.4237 208.711 66.3493 208.732 66.2897C208.77 66.2153 208.807 66.141 208.854 66.0814L210.749 62.6589C210.787 62.5993 210.817 62.5696 210.84 62.5696C210.878 62.5546 210.937 62.5397 211.021 62.5397H211.563Z" fill="#BD6513"></path><path d="M220.766 67.4803V68.1053H217.304V62.5397H220.766V63.1647H218.056V65.01H220.254V65.6053H218.056V67.4803H220.766Z" fill="#BD6513"></path><path d="M229.591 67.4803V68.1053H226.131V62.5397H229.591V63.1647H226.882V65.01H229.08V65.6053H226.882V67.4803H229.591Z" fill="#BD6513"></path><path d="M238.749 63.1647H236.943V68.1053H236.19V63.1647H234.354V62.5397H238.749V63.1647Z" fill="#BD6513"></path><path d="M246.774 63.4024C246.73 63.447 246.699 63.4769 246.685 63.4917C246.662 63.514 246.631 63.5214 246.594 63.5214C246.533 63.5214 246.474 63.5066 246.413 63.4619C246.353 63.4247 246.27 63.3726 246.172 63.3131C246.09 63.2536 245.991 63.209 245.871 63.1643C245.751 63.1271 245.601 63.1047 245.421 63.1047C245.24 63.1047 245.074 63.1271 244.938 63.1643C244.818 63.209 244.713 63.2684 244.637 63.3429C244.555 63.4247 244.487 63.5214 244.426 63.6404C244.382 63.7447 244.366 63.8489 244.366 63.9679C244.366 64.1316 244.405 64.258 244.487 64.3547C244.562 64.459 244.668 64.5483 244.788 64.6226C244.924 64.6821 245.074 64.7417 245.24 64.8011C245.397 64.8607 245.555 64.9203 245.721 64.9797C245.879 65.0393 246.038 65.1137 246.202 65.1881C246.361 65.2476 246.504 65.3369 246.624 65.456C246.76 65.5601 246.873 65.6866 246.955 65.8429C247.03 66.0066 247.075 66.1926 247.075 66.4083C247.075 66.6687 247.023 66.9069 246.925 67.1226C246.842 67.3236 246.722 67.5021 246.564 67.6583C246.399 67.822 246.202 67.9486 245.962 68.0453C245.736 68.1197 245.48 68.1643 245.179 68.1643C244.818 68.1643 244.487 68.1047 244.185 67.9857C243.885 67.8519 243.629 67.6733 243.434 67.45L243.643 67.0929C243.659 67.0557 243.682 67.0259 243.704 67.0036C243.742 66.9887 243.779 66.9739 243.824 66.9739C243.84 66.9739 243.87 66.9961 243.915 67.0333C243.976 67.0557 244.02 67.0854 244.065 67.1226C244.126 67.1673 244.185 67.2119 244.246 67.2714C244.321 67.3161 244.405 67.3533 244.487 67.3904C244.585 67.4351 244.698 67.4723 244.818 67.5096C244.938 67.5319 245.067 67.5393 245.21 67.5393C245.39 67.5393 245.548 67.5244 245.691 67.4797C245.827 67.4203 245.947 67.3533 246.052 67.2714C246.15 67.1747 246.218 67.0631 246.263 66.944C246.324 66.825 246.353 66.6911 246.353 66.5274C246.353 66.3489 246.308 66.2149 246.233 66.1107C246.15 66.014 246.052 65.9247 245.932 65.8429C245.811 65.7684 245.669 65.709 245.51 65.6643C245.345 65.6047 245.179 65.5601 244.999 65.5154C244.832 65.456 244.675 65.3964 244.517 65.3369C244.351 65.2626 244.201 65.1733 244.065 65.069C243.945 64.95 243.84 64.8161 243.765 64.6524C243.704 64.4739 243.674 64.258 243.674 63.9976C243.674 63.8041 243.704 63.6107 243.765 63.4321C243.84 63.2536 243.953 63.0973 244.096 62.956C244.253 62.822 244.442 62.7104 244.668 62.6286C244.886 62.5319 245.134 62.4797 245.421 62.4797C245.721 62.4797 246 62.5319 246.263 62.6286C246.519 62.7327 246.753 62.8667 246.955 63.0453L246.774 63.4024Z" fill="#BD6513"></path><path d="M260.394 65.4267C260.614 65.4267 260.802 65.3969 260.967 65.3374C261.126 65.2779 261.269 65.2034 261.389 65.0993C261.508 65.0026 261.6 64.8836 261.659 64.7421C261.719 64.6081 261.75 64.4446 261.75 64.266C261.75 63.9089 261.637 63.6336 261.419 63.4326C261.193 63.2391 260.854 63.135 260.394 63.135H259.491V65.4267H260.394ZM260.394 62.5397C260.756 62.5397 261.065 62.5844 261.328 62.6589C261.584 62.7407 261.795 62.8597 261.961 63.016C262.141 63.1573 262.269 63.3359 262.352 63.5517C262.449 63.7749 262.503 64.013 262.503 64.266C262.503 64.5264 262.449 64.7644 262.352 64.9803C262.269 65.2034 262.141 65.3894 261.961 65.5457C261.78 65.6871 261.555 65.8061 261.298 65.9029C261.035 65.9847 260.734 66.0219 260.394 66.0219H259.491V68.1053H258.74V62.5397H260.394Z" fill="#BD6513"></path><path d="M270.726 66.0517L269.853 63.7897C269.831 63.7153 269.801 63.6336 269.763 63.5517C269.74 63.455 269.71 63.3581 269.672 63.254C269.628 63.4773 269.583 63.6559 269.522 63.7897L268.619 66.0517H270.726ZM272.322 68.1053H271.72C271.659 68.1053 271.607 68.0979 271.57 68.0754C271.525 68.0383 271.494 67.9861 271.479 67.9267L270.937 66.5874H268.408L267.897 67.9267C267.875 67.9713 267.845 68.0086 267.807 68.0457C267.761 68.0903 267.701 68.1053 267.626 68.1053H267.054L269.311 62.5397H270.064L272.322 68.1053Z" fill="#BD6513"></path><path d="M278.92 65.2481C279.138 65.2481 279.326 65.2183 279.491 65.1589C279.65 65.0993 279.793 65.0249 279.913 64.9207C280.033 64.824 280.124 64.7124 280.184 64.5933C280.244 64.4594 280.274 64.3106 280.274 64.1469C280.274 63.8121 280.161 63.5666 279.943 63.4029C279.718 63.2243 279.385 63.135 278.949 63.135H278.106V65.2481H278.92ZM281.508 68.1053H280.846C280.703 68.1053 280.59 68.0606 280.515 67.9564L279.07 65.9624C279.024 65.9029 278.979 65.8657 278.92 65.8433C278.874 65.8061 278.799 65.7839 278.679 65.7839H278.106V68.1053H277.354V62.5397H278.949C279.288 62.5397 279.589 62.5844 279.852 62.6589C280.108 62.7183 280.319 62.8224 280.485 62.9564C280.665 63.0979 280.793 63.2689 280.876 63.4624C280.952 63.641 280.996 63.8493 280.996 64.0874C280.996 64.2883 280.966 64.4743 280.907 64.6529C280.846 64.8166 280.755 64.9653 280.635 65.0993C280.515 65.2407 280.365 65.3597 280.184 65.4564C280.018 65.5383 279.83 65.6053 279.612 65.6647C279.709 65.7243 279.8 65.8061 279.882 65.9029L281.508 68.1053Z" fill="#BD6513"></path><path d="M289.545 66.0517L288.672 63.7897C288.65 63.7153 288.62 63.6336 288.582 63.5517C288.559 63.455 288.529 63.3581 288.491 63.254C288.446 63.4773 288.402 63.6559 288.341 63.7897L287.438 66.0517H289.545ZM291.141 68.1053H290.539C290.478 68.1053 290.426 68.0979 290.388 68.0754C290.342 68.0383 290.313 67.9861 290.297 67.9267L289.755 66.5874H287.227L286.715 67.9267C286.692 67.9713 286.663 68.0086 286.626 68.0457C286.58 68.0903 286.52 68.1053 286.445 68.1053H285.873L288.13 62.5397H288.883L291.141 68.1053Z" fill="#BD6513"></path><path d="M301.049 65.3374C301.049 65.754 300.974 66.1336 300.838 66.4683C300.717 66.8106 300.522 67.1081 300.266 67.3611C300.025 67.5993 299.731 67.7927 299.393 67.9267C299.046 68.0457 298.678 68.1053 298.279 68.1053H296.172V62.5397H298.279C298.678 62.5397 299.046 62.6141 299.393 62.7481C299.731 62.8671 300.025 63.0606 300.266 63.3136C300.522 63.5517 300.717 63.8493 300.838 64.2064C300.974 64.5487 301.049 64.9207 301.049 65.3374ZM300.266 65.3374C300.266 64.9803 300.214 64.6751 300.116 64.4147C300.033 64.1394 299.905 63.9089 299.724 63.7303C299.543 63.5367 299.333 63.388 299.091 63.2839C298.851 63.1871 298.58 63.135 298.279 63.135H296.924V67.51H298.279C298.58 67.51 298.851 67.4653 299.091 67.3611C299.333 67.2644 299.543 67.1231 299.724 66.9446C299.905 66.751 300.033 66.5204 300.116 66.26C300.214 65.9847 300.266 65.6796 300.266 65.3374Z" fill="#BD6513"></path><path d="M307.187 68.1053H306.434V62.5397H307.187V68.1053Z" fill="#BD6513"></path><path d="M315.816 63.4024C315.772 63.447 315.741 63.4769 315.725 63.4917C315.704 63.514 315.673 63.5214 315.636 63.5214C315.575 63.5214 315.516 63.5066 315.455 63.4619C315.394 63.4247 315.312 63.3726 315.214 63.3131C315.131 63.2536 315.033 63.209 314.913 63.1643C314.793 63.1271 314.642 63.1047 314.461 63.1047C314.28 63.1047 314.116 63.1271 313.98 63.1643C313.86 63.209 313.754 63.2684 313.679 63.3429C313.595 63.4247 313.529 63.5214 313.468 63.6404C313.423 63.7447 313.408 63.8489 313.408 63.9679C313.408 64.1316 313.445 64.258 313.529 64.3547C313.604 64.459 313.71 64.5483 313.83 64.6226C313.965 64.6821 314.116 64.7417 314.28 64.8011C314.439 64.8607 314.597 64.9203 314.763 64.9797C314.92 65.0393 315.078 65.1137 315.244 65.1881C315.402 65.2476 315.545 65.3369 315.666 65.456C315.8 65.5601 315.915 65.6866 315.997 65.8429C316.072 66.0066 316.117 66.1926 316.117 66.4083C316.117 66.6687 316.065 66.9069 315.967 67.1226C315.884 67.3236 315.763 67.5021 315.605 67.6583C315.439 67.822 315.244 67.9486 315.003 68.0453C314.777 68.1197 314.522 68.1643 314.221 68.1643C313.86 68.1643 313.529 68.1047 313.227 67.9857C312.926 67.8519 312.671 67.6733 312.474 67.45L312.685 67.0929C312.701 67.0557 312.723 67.0259 312.746 67.0036C312.783 66.9887 312.821 66.9739 312.866 66.9739C312.882 66.9739 312.911 66.9961 312.957 67.0333C313.016 67.0557 313.062 67.0854 313.107 67.1226C313.168 67.1673 313.227 67.2119 313.288 67.2714C313.363 67.3161 313.445 67.3533 313.529 67.3904C313.626 67.4351 313.738 67.4723 313.86 67.5096C313.98 67.5319 314.108 67.5393 314.251 67.5393C314.432 67.5393 314.59 67.5244 314.733 67.4797C314.868 67.4203 314.988 67.3533 315.094 67.2714C315.192 67.1747 315.259 67.0631 315.305 66.944C315.364 66.825 315.394 66.6911 315.394 66.5274C315.394 66.3489 315.35 66.2149 315.274 66.1107C315.192 66.014 315.094 65.9247 314.974 65.8429C314.853 65.7684 314.709 65.709 314.552 65.6643C314.386 65.6047 314.221 65.5601 314.04 65.5154C313.874 65.456 313.717 65.3964 313.558 65.3369C313.393 65.2626 313.243 65.1733 313.107 65.069C312.987 64.95 312.882 64.8161 312.807 64.6524C312.746 64.4739 312.715 64.258 312.715 63.9976C312.715 63.8041 312.746 63.6107 312.807 63.4321C312.882 63.2536 312.994 63.0973 313.137 62.956C313.295 62.822 313.483 62.7104 313.71 62.6286C313.928 62.5319 314.175 62.4797 314.461 62.4797C314.763 62.4797 315.04 62.5319 315.305 62.6286C315.561 62.7327 315.793 62.8667 315.997 63.0453L315.816 63.4024Z" fill="#BD6513"></path><path d="M324.94 67.4803V68.1053H321.478V62.5397H324.94V63.1647H322.23V65.01H324.428V65.6053H322.23V67.4803H324.94Z" fill="#BD6513"></path></g></g><defs><clipPath id="clip0_2_6"><rect width="328" height="80" fill="white"></rect></clipPath></defs></svg>