<?xml version="1.0" encoding="UTF-8"?>
<!DOCTYPE svg PUBLIC "-//W3C//DTD SVG 1.1//EN" "http://www.w3.org/Graphics/SVG/1.1/DTD/svg11.dtd">
<!-- Creator: CorelDRAW 2019 (64-Bit) -->
<svg xmlns="http://www.w3.org/2000/svg" xml:space="preserve" width="185px" height="50px" version="1.1" style="shape-rendering:geometricPrecision; text-rendering:geometricPrecision; image-rendering:optimizeQuality; fill-rule:evenodd; clip-rule:evenodd"
viewBox="0 0 185 50"
 xmlns:xlink="http://www.w3.org/1999/xlink">
 <defs>
  <style type="text/css">
   <![CDATA[
    .fil2 {fill:#0D3D62}
    .fil1 {fill:#0D3D62;fill-rule:nonzero}
    .fil0 {fill:#EC5849;fill-rule:nonzero}
   ]]>
  </style>
 </defs>
 <g id="Layer_x0020_1">
  <metadata id="CorelCorpID_0Corel-Layer"/>
  <g id="_2233088235904">
   <path class="fil0" d="M87.57 49.86l0 -7.96 1.48 0 0 3.28 3.92 0 0 -3.28 1.48 0 0 7.96 -1.48 0 0 -3.4 -3.92 0 0 3.4 -1.48 0zm17.32 -4c0,1.85 0.82,2.77 2.46,2.77 1.6,0 2.4,-0.92 2.4,-2.77 0,-1.82 -0.8,-2.74 -2.4,-2.74 -1.64,0 -2.46,0.92 -2.46,2.74zm-1.54 0.03c0,-2.7 1.34,-4.05 4,-4.05 2.62,0 3.94,1.35 3.94,4.05 0,2.68 -1.32,4.02 -3.94,4.02 -2.55,0 -3.88,-1.34 -4,-4.02zm18.32 -3.99l0 6.68 3.16 0 0 1.28 -4.64 0 0 -7.96 1.48 0zm13.54 0l0 7.96 -1.47 0 0 -7.96 1.47 0zm12.3 6.68c1.66,0 2.48,-0.97 2.48,-2.92 0,-1.65 -0.82,-2.48 -2.48,-2.48l-1.64 0 0 5.4 1.64 0zm-3.11 1.28l0 -7.96 3.11 0c2.64,0 3.96,1.25 3.96,3.76 0,2.8 -1.32,4.2 -3.96,4.2l-3.11 0zm16.65 0l-1.51 0 3.38 -7.96 1.58 0 3.46 7.96 -1.59 0 -0.91 -2.17 -2.64 0 0.5 -1.28 1.61 0 -1.26 -2.99 -2.62 6.44zm13.72 -7.96l1.59 0 2.24 3.84 2.1 -3.84 1.53 0 -2.93 5.18 0 2.78 -1.47 0 0 -2.78 -3.06 -5.18z"/>
   <path class="fil1" d="M42.15 37.31l0 -16.04 7 0c3.21,0 6.6,0.95 6.6,4.77 0,2.11 -0.95,3.48 -3,4.05l4.71 7.22 -6.12 0 -3.64 -7.85c1.87,-0.27 2.9,-1.14 2.9,-3.11 0,-1.93 -1.04,-2.86 -2.94,-2.86 -0.21,0 -0.37,0 -0.58,0.04l0 13.78 -4.93 0zm21.15 0c-1.24,0 -2.12,-0.27 -2.63,-0.82 -0.52,-0.55 -0.77,-1.5 -0.77,-2.85l0 -8.7c0,-1.35 0.25,-2.3 0.77,-2.85 0.51,-0.55 1.39,-0.82 2.63,-0.82l7.47 0 0 2.41 -3.98 0c-0.66,0 -1.11,0.11 -1.33,0.35 -0.22,0.25 -0.33,0.73 -0.33,1.44l0 2.62 5.04 0 0 2.41 -5.04 0 0 2.67c0,0.7 0.11,1.16 0.32,1.39 0.22,0.23 0.67,0.35 1.34,0.35l4.23 0 0 2.4 -7.72 0zm9.84 0l4.18 -13.08c0.41,-1.3 0.88,-2.21 1.41,-2.72 0.52,-0.51 1.23,-0.76 2.12,-0.76 0.84,0 1.49,0.22 1.96,0.67 0.47,0.45 0.91,1.3 1.3,2.56l4.33 13.33 -5.49 0 -0.88 -2.92 -5.34 0 -0.86 2.92 -2.73 0zm4.25 -5.15l4.01 0 -1.93 -6.96 -2.08 6.96zm13.94 5.15l0 -13.86c0,-2 1.27,-2.7 3.12,-2.7 0.82,0 1.47,0.18 1.95,0.55 0.49,0.37 0.92,1.03 1.31,1.97l2.15 5.2 2.09 -5.2c0.37,-0.96 0.79,-1.63 1.26,-1.98 0.47,-0.36 1.14,-0.54 2.03,-0.54 1.85,0 3.18,0.68 3.18,2.7l0 13.86 -5.15 0 0 -11.84 -4.64 11.84 -0.17 0 -4.53 -11.37 0 11.37 -2.6 0zm27.2 -4.96c0,0.99 0.17,1.67 0.49,2.02 0.34,0.36 0.97,0.54 1.91,0.54l1.31 0 0 2.4 -4.45 0c-1.65,0 -2.81,-0.35 -3.49,-1.07 -0.66,-0.71 -1,-1.98 -1,-3.81l0 -21.02 5.23 0 0 20.94zm6.01 4.96l0 -16.04 5.23 0 0 16.04 -5.23 0zm12.56 -10.45l0 10.45 -2.59 0 0 -13.44c0,-1.83 0.59,-3.12 2.62,-3.12 1.81,0 2.86,1.31 3.73,2.74l3.58 5.83 0 -8.05 2.59 0 0 13.96c0,0.97 -0.14,1.65 -0.42,2.06 -0.29,0.41 -0.76,0.62 -1.4,0.62 -0.49,0 -0.92,-0.16 -1.33,-0.49 -0.4,-0.33 -0.89,-0.94 -1.47,-1.84l-5.31 -8.72zm18 10.45c-1.25,0 -2.12,-0.27 -2.64,-0.82 -0.51,-0.55 -0.76,-1.5 -0.76,-2.85l0 -8.7c0,-1.35 0.25,-2.3 0.76,-2.85 0.52,-0.55 1.39,-0.82 2.64,-0.82l7.46 0 0 2.41 -3.97 0c-0.67,0 -1.11,0.11 -1.33,0.35 -0.23,0.25 -0.34,0.73 -0.34,1.44l0 2.62 5.04 0 0 2.41 -5.04 0 0 2.67c0,0.7 0.11,1.16 0.33,1.39 0.22,0.23 0.66,0.35 1.34,0.35l4.23 0 0 2.4 -7.72 0zm11.83 0l0 -16.04 7 0c3.22,0 6.61,0.95 6.61,4.77 0,2.11 -0.95,3.48 -3.01,4.05l4.71 7.22 -6.11 0 -3.65 -7.85c1.88,-0.27 2.9,-1.14 2.9,-3.11 0,-1.93 -1.04,-2.86 -2.94,-2.86 -0.2,0 -0.37,0 -0.58,0.04l0 13.78 -4.93 0z"/>
   <g>
    <path class="fil0" d="M127.12 14.73c-0.99,0 -1.8,-0.8 -1.8,-1.79 0,-0.99 0.81,-1.8 1.8,-1.8 0.99,0 1.79,0.81 1.79,1.8 0,0.99 -0.8,1.79 -1.79,1.79zm0 -5.25c-2.01,0 -3.63,1.63 -3.63,3.63 0,1.71 2.64,6.33 3.42,7.2 0.11,0.13 0.31,0.13 0.42,0 0.78,-0.87 3.41,-5.49 3.41,-7.2 0,-2 -1.62,-3.63 -3.62,-3.63z"/>
    <path class="fil0" d="M124.1 13.45c0,-1.74 1.41,-3.15 3.15,-3.15 1.01,0 1.92,0.48 2.49,1.23 -0.54,-0.94 -1.56,-1.58 -2.73,-1.58 -1.74,0 -3.14,1.41 -3.14,3.15 0,0.72 0.24,1.39 0.65,1.92 -0.27,-0.47 -0.42,-1 -0.42,-1.57z"/>
   </g>
   <g>
    <path class="fil1" d="M12.19 5.1l0 3.31 -10.43 0 0 -8.33 12.58 0c3.68,0 6.64,0.27 8.89,0.8 2.27,0.52 4.3,1.41 6.12,2.62 2.66,1.77 4.73,4 6.21,6.69 1.49,2.69 2.23,5.55 2.23,8.58 0,2.89 -0.57,5.59 -1.71,8.09 -1.15,2.49 -2.79,4.65 -4.95,6.47 -1.56,1.28 -3.39,2.26 -5.51,2.96 -2.12,0.68 -4.39,1.02 -6.82,1.02l-17.04 0 0 -5.01 11.24 0 0 0 2.79 0c3.43,0 6.09,-1.18 7.96,-3.54 1.87,-2.36 2.81,-5.71 2.81,-10.05 0,-4.34 -0.94,-7.7 -2.82,-10.07 -1.89,-2.36 -4.54,-3.54 -7.95,-3.54l-3.6 0z"/>
    <g>
     <g>
      <g>
       <g>
        <g>
         <path class="fil2" d="M5.04 13.07l3.34 0c0.06,0 0.11,0.05 0.11,0.11l0 0c0,0.06 -0.05,0.11 -0.11,0.11l-3.34 0c-0.07,0 -0.11,-0.05 -0.11,-0.11l0 0c0,-0.06 0.04,-0.11 0.11,-0.11z"/>
         <path class="fil2" d="M5.86 13.92l3.35 0c0.06,0 0.11,0.05 0.11,0.11l0 0c0,0.06 -0.05,0.11 -0.11,0.11l-3.35 0c-0.06,0 -0.11,-0.05 -0.11,-0.11l0 0c0,-0.06 0.05,-0.11 0.11,-0.11z"/>
        </g>
        <g>
         <path class="fil2" d="M6.97 15.99l3.35 0c0.06,0 0.11,0.04 0.11,0.1l0 0c0,0.06 -0.05,0.11 -0.11,0.11l-3.35 0c-0.06,0 -0.11,-0.05 -0.11,-0.11l0 0c0,-0.06 0.05,-0.1 0.11,-0.1z"/>
         <path class="fil2" d="M7.8 16.84l3.34 0c0.06,0 0.11,0.05 0.11,0.11l0 0c0,0.06 -0.05,0.11 -0.11,0.11l-3.34 0c-0.06,0 -0.11,-0.05 -0.11,-0.11l0 0c0,-0.06 0.05,-0.11 0.11,-0.11z"/>
        </g>
       </g>
       <g>
        <g>
         <path class="fil2" d="M5.04 27.32l3.34 0c0.06,0 0.11,-0.04 0.11,-0.1l0 0c0,-0.07 -0.05,-0.11 -0.11,-0.11l-3.34 0c-0.07,0 -0.11,0.04 -0.11,0.11l0 0c0,0.06 0.04,0.1 0.11,0.1z"/>
         <path class="fil2" d="M5.86 26.47l3.35 0c0.06,0 0.11,-0.05 0.11,-0.11l0 0c0,-0.06 -0.05,-0.11 -0.11,-0.11l-3.35 0c-0.06,0 -0.11,0.05 -0.11,0.11l0 0c0,0.06 0.05,0.11 0.11,0.11z"/>
        </g>
        <g>
         <path class="fil2" d="M6.97 24.41l3.35 0c0.06,0 0.11,-0.05 0.11,-0.11l0 0c0,-0.06 -0.05,-0.11 -0.11,-0.11l-3.35 0c-0.06,0 -0.11,0.05 -0.11,0.11l0 0c0,0.06 0.05,0.11 0.11,0.11z"/>
         <path class="fil2" d="M7.8 23.56l3.34 0c0.06,0 0.11,-0.05 0.11,-0.11l0 0c0,-0.06 -0.05,-0.11 -0.11,-0.11l-3.34 0c-0.06,0 -0.11,0.05 -0.11,0.11l0 0c0,0.06 0.05,0.11 0.11,0.11z"/>
        </g>
       </g>
      </g>
      <g>
       <g>
        <path class="fil2" d="M9.12 13.06l1.28 0c0.29,0 0.53,0.23 0.53,0.52l0 0c0,0.28 -0.24,0.52 -0.53,0.52l-1.28 0c-0.28,0 -0.52,-0.24 -0.52,-0.52l0 0c0,-0.29 0.24,-0.52 0.52,-0.52z"/>
        <path class="fil2" d="M11.75 15.95l1.28 0c0.29,0 0.53,0.23 0.53,0.52l0 0c0,0.28 -0.24,0.52 -0.53,0.52l-1.28 0c-0.28,0 -0.52,-0.24 -0.52,-0.52l0 0c0,-0.29 0.24,-0.52 0.52,-0.52z"/>
       </g>
       <g>
        <path class="fil2" d="M9.12 27.34l1.28 0c0.29,0 0.53,-0.24 0.53,-0.52l0 0c0,-0.29 -0.24,-0.52 -0.53,-0.52l-1.28 0c-0.28,0 -0.52,0.23 -0.52,0.52l0 0c0,0.28 0.24,0.52 0.52,0.52z"/>
        <path class="fil2" d="M11.75 24.45l1.28 0c0.29,0 0.53,-0.23 0.53,-0.52l0 0c0,-0.29 -0.24,-0.52 -0.53,-0.52l-1.28 0c-0.28,0 -0.52,0.23 -0.52,0.52l0 0c0,0.29 0.24,0.52 0.52,0.52z"/>
       </g>
      </g>
     </g>
     <path class="fil0" d="M6.76 11.49l0.87 -0.14 6.67 7.24c0,0 0.21,0.26 0.81,0.53l0 0c1.21,0.02 2.38,0.06 3.39,0.14 1.92,0.14 3.27,0.54 3.27,0.94l0 0c0,0.4 -1.35,0.79 -3.27,0.94 -1.01,0.07 -2.18,0.12 -3.39,0.13l0 0c-0.6,0.28 -0.81,0.53 -0.81,0.53l-6.67 7.24 -0.87 -0.13 4.22 -7.65 0 0c-2.56,-0.04 -4.66,-0.13 -5.01,-0.13 -0.22,0 -1.09,-0.14 -1.98,-0.31l0 0 -1.67 2.28 -0.51 0 0.37 -2.71 0 0c-0.26,-0.07 -0.42,-0.14 -0.42,-0.19 0,-0.05 0.16,-0.12 0.42,-0.2l0 0 -0.37 -2.7 0.51 0 1.67 2.28 0 0c0.89,-0.18 1.76,-0.32 1.98,-0.32 0.35,0 2.45,-0.09 5.01,-0.13l0 0 -4.22 -7.64z"/>
    </g>
   </g>
  </g>
 </g>
</svg>
